<?xml version="1.0" standalone="no"?>
<!DOCTYPE svg PUBLIC "-//W3C//DTD SVG 20010904//EN"
 "http://www.w3.org/TR/2001/REC-SVG-20010904/DTD/svg10.dtd">
<svg version="1.0" xmlns="http://www.w3.org/2000/svg"
 width="512.000000pt" height="512.000000pt" viewBox="0 0 512.000000 512.000000"
 preserveAspectRatio="xMidYMid meet">
<metadata>
Created by potrace 1.14, written by Peter Selinger 2001-2017
</metadata>
<g transform="translate(0.000000,512.000000) scale(0.100000,-0.100000)"
fill="#000000" stroke="none">
<path d="M104 5028 c3 -10 0 -20 -6 -24 -7 -4 -6 -9 3 -15 11 -7 9 -9 -6 -9
-19 -1 -19 -1 -2 -11 10 -6 14 -15 10 -22 -11 -17 -10 -40 2 -56 7 -11 7 -13
-2 -7 -7 4 -13 3 -13 -3 0 -5 5 -13 10 -16 6 -4 7 -12 3 -18 -11 -16 -11 -29
-1 -49 5 -10 4 -19 -2 -23 -5 -3 -10 -11 -10 -16 0 -6 5 -7 12 -3 7 5 8 3 2
-7 -5 -8 -9 -21 -9 -29 0 -8 -4 -20 -8 -27 -4 -6 -2 -15 4 -19 8 -4 9 -3 5 4
-4 7 -2 12 3 12 13 0 14 -17 2 -24 -10 -7 -9 -25 2 -43 4 -6 3 -14 -2 -18 -5
-3 -8 -14 -6 -25 2 -11 -2 -20 -8 -20 -7 0 -4 -5 5 -10 17 -10 17 -26 2 -64
-6 -15 -4 -17 7 -11 11 7 12 6 4 -6 -12 -17 -13 -39 -1 -58 6 -10 5 -12 -2 -7
-7 4 -12 3 -12 -3 0 -5 5 -13 10 -16 7 -4 7 -12 2 -18 -9 -14 -10 -27 0 -42 4
-6 3 -17 -3 -25 -12 -20 -11 -33 1 -25 5 3 10 -1 10 -9 0 -9 7 -16 15 -17 48
-4 60 -1 57 10 -1 7 2 10 7 7 5 -4 12 -2 15 3 4 5 2 12 -3 15 -5 3 -7 15 -4
26 3 11 10 17 17 13 7 -5 7 -2 -1 8 -7 9 -8 20 -3 29 5 8 6 19 2 24 -9 16 -8
106 1 106 5 0 5 6 0 13 -14 22 -14 49 -1 41 10 -6 10 -4 0 8 -10 13 -10 17 0
21 11 4 11 6 0 6 -9 1 -10 6 -2 20 6 12 6 22 1 26 -9 5 -7 42 4 73 3 7 0 10
-5 7 -10 -6 -4 61 8 79 3 5 1 6 -5 3 -9 -6 -11 108 -2 118 4 3 69 6 119 5 8
-1 32 1 53 2 21 2 41 0 43 -4 2 -3 18 -3 34 2 21 6 30 5 30 -3 0 -8 3 -7 9 2
6 9 11 10 15 2 4 -6 12 -9 17 -6 13 8 99 11 99 4 0 -4 18 -3 39 1 22 4 45 4
52 -1 7 -4 17 -5 22 -2 6 3 29 6 53 6 24 0 44 4 44 10 0 5 8 3 17 -4 9 -8 14
-9 11 -3 -4 5 -3 27 2 47 4 20 5 35 1 33 -7 -5 -32 20 -25 26 2 3 -3 5 -11 5
-8 0 -11 -5 -8 -10 3 -6 1 -7 -5 -3 -20 12 -52 15 -52 5 0 -13 -23 -7 -38 11
-10 11 -12 12 -6 1 5 -11 3 -13 -9 -8 -10 4 -17 1 -17 -6 0 -7 -3 -8 -8 -2
-11 15 -32 17 -32 3 0 -10 -3 -9 -9 1 -7 10 -13 11 -31 1 -15 -8 -20 -8 -16
-1 4 6 4 11 1 11 -4 0 -16 -5 -27 -11 -15 -8 -19 -8 -14 0 4 6 4 11 1 11 -4 0
-16 -5 -27 -11 -15 -8 -19 -8 -14 0 4 6 3 11 -3 11 -5 0 -13 -5 -16 -10 -4 -7
-13 -7 -26 0 -14 8 -19 7 -19 -2 0 -10 -2 -10 -9 0 -4 8 -12 14 -16 14 -4 0
-12 -6 -16 -14 -7 -10 -9 -10 -9 2 0 13 -1 13 -10 0 -7 -10 -10 -11 -10 -2 0
13 -38 10 -61 -4 -8 -4 -9 -3 -5 4 8 13 -6 17 -17 5 -14 -14 -57 -9 -57 7 0
13 -1 13 -10 0 -5 -8 -10 -10 -10 -5 0 6 -5 3 -10 -5 -6 -10 -10 -11 -10 -2 0
14 -21 12 -32 -3 -5 -6 -8 -6 -8 2 0 12 -17 12 -37 0 -7 -4 -17 0 -23 10 -10
16 -11 16 -6 1z"/>
<path d="M2010 5026 c14 -18 14 -19 -7 -8 -13 8 -24 8 -28 2 -3 -5 -13 -6 -22
-3 -12 5 -14 3 -8 -7 6 -10 4 -12 -9 -7 -10 4 -15 3 -11 -4 4 -5 1 -17 -7 -26
-7 -9 -8 -14 -2 -10 7 4 15 0 18 -9 4 -10 2 -13 -7 -8 -6 4 -3 -2 9 -13 16
-16 33 -20 77 -19 31 0 57 -3 57 -8 0 -5 6 -3 14 3 10 8 16 9 21 1 3 -6 10 -8
14 -6 6 4 75 7 131 6 8 -1 32 1 53 2 21 2 41 0 43 -4 2 -3 18 -3 34 2 21 6 30
5 30 -3 0 -8 3 -7 9 2 6 9 11 10 15 2 4 -6 12 -9 17 -6 13 8 99 11 99 4 0 -4
18 -3 39 1 22 4 45 4 52 -1 7 -4 17 -5 22 -2 5 3 38 5 73 4 35 -1 70 -2 77 -2
6 0 27 2 45 4 18 2 32 -1 32 -7 0 -6 4 -5 9 3 6 9 11 10 15 2 4 -6 12 -9 17
-6 15 10 99 11 99 1 0 -5 6 -3 14 3 10 8 16 9 21 1 3 -6 11 -8 16 -4 6 3 26 6
45 6 42 0 74 29 70 65 -3 25 -24 46 -38 37 -4 -3 -8 -1 -8 4 0 6 -11 9 -25 8
-14 0 -25 -5 -25 -11 0 -7 -3 -7 -8 0 -11 15 -32 17 -32 2 0 -9 -3 -8 -9 2 -7
10 -13 11 -31 1 -15 -8 -20 -8 -16 -1 4 6 4 11 1 11 -4 0 -16 -5 -27 -11 -15
-8 -19 -8 -14 0 4 6 4 11 1 11 -4 0 -16 -5 -27 -11 -15 -8 -19 -8 -14 0 4 6 3
11 -3 11 -5 0 -13 -5 -16 -10 -4 -7 -13 -7 -26 0 -14 8 -19 7 -19 -2 0 -10 -2
-10 -9 0 -4 8 -12 14 -16 14 -4 0 -12 -6 -16 -14 -7 -10 -9 -10 -9 2 0 13 -1
13 -10 0 -7 -10 -10 -11 -10 -2 0 13 -38 10 -61 -4 -8 -4 -9 -3 -5 4 8 13 -6
16 -18 5 -12 -13 -40 -9 -54 7 -10 11 -12 12 -6 1 5 -11 3 -13 -9 -8 -10 4
-17 1 -17 -6 0 -7 -3 -8 -8 -2 -11 15 -32 17 -32 3 0 -10 -3 -9 -9 1 -7 10
-13 11 -31 1 -15 -8 -20 -8 -16 -1 4 6 4 11 1 11 -4 0 -16 -5 -27 -11 -15 -8
-19 -8 -14 0 4 6 4 11 1 11 -4 0 -16 -5 -27 -11 -15 -8 -19 -8 -14 0 4 6 3 11
-3 11 -5 0 -13 -5 -16 -10 -4 -7 -13 -7 -26 0 -14 8 -19 7 -19 -2 0 -10 -2
-10 -9 0 -4 8 -12 14 -16 14 -4 0 -12 -6 -16 -14 -7 -10 -9 -10 -9 2 0 13 -1
13 -10 0 -7 -10 -10 -11 -10 -2 0 13 -38 10 -61 -4 -8 -4 -9 -3 -5 4 8 13 -6
16 -18 5 -12 -13 -40 -9 -54 7 -10 11 -12 12 -6 1 5 -11 3 -13 -9 -8 -10 4
-17 1 -17 -6 0 -7 -3 -8 -8 -2 -11 15 -32 17 -32 3 0 -10 -3 -9 -9 1 -6 10
-13 11 -27 3 -13 -7 -25 -6 -43 6 -25 16 -25 16 -11 -2z"/>
<path d="M4340 5025 c0 -11 -4 -16 -8 -10 -21 30 -98 -17 -80 -49 6 -11 5 -16
-4 -16 -10 0 -10 -2 1 -9 7 -5 11 -13 8 -18 -3 -5 0 -10 8 -10 8 0 11 5 8 11
-4 6 1 5 10 -3 9 -7 24 -11 32 -7 8 3 15 0 15 -7 0 -8 3 -8 9 2 6 9 11 10 15
2 4 -6 12 -9 17 -6 13 8 99 11 99 4 0 -4 18 -3 39 1 22 4 45 4 52 -1 7 -4 17
-5 22 -2 5 3 38 5 73 4 35 -1 71 -1 79 -1 8 0 36 0 63 0 26 0 64 0 85 0 35 1
49 -12 27 -25 -6 -4 -8 -11 -4 -16 11 -18 12 -79 1 -72 -6 4 -7 1 -2 -7 10
-16 12 -150 3 -143 -5 2 -4 -7 2 -21 6 -17 6 -26 -3 -30 -9 -3 -9 -5 1 -5 9
-1 10 -6 3 -20 -6 -10 -8 -21 -5 -24 10 -9 11 -67 1 -67 -4 0 -5 -5 -1 -12 10
-16 11 -98 2 -126 -5 -15 -4 -21 2 -17 6 3 10 1 10 -4 0 -6 -5 -11 -11 -11 -8
0 -8 -5 1 -15 7 -8 9 -15 5 -15 -5 0 2 -9 15 -20 16 -14 30 -18 44 -14 12 4
26 7 31 7 7 0 11 24 10 56 0 31 3 62 8 69 6 7 6 12 0 12 -5 0 -9 9 -10 20 -1
11 2 18 7 15 6 -3 7 1 4 10 -11 27 -11 89 -1 103 6 7 6 12 0 12 -5 0 -9 9 -10
20 -1 11 2 18 7 15 6 -3 7 1 4 10 -11 27 -11 89 -1 103 6 7 6 12 0 12 -5 0 -9
9 -10 20 -1 11 2 18 7 15 6 -3 7 1 4 10 -11 27 -11 89 -1 103 6 7 6 12 0 12
-5 0 -9 9 -10 20 -1 11 2 18 8 15 5 -4 6 3 1 17 -4 13 -7 41 -7 63 1 33 -2 41
-17 41 -10 0 -18 -5 -18 -11 0 -5 -4 -4 -9 4 -7 10 -13 11 -31 1 -15 -8 -20
-8 -16 -1 4 6 4 11 1 11 -4 0 -16 -5 -27 -11 -15 -8 -19 -8 -14 0 4 6 4 11 1
11 -4 0 -16 -5 -27 -11 -15 -8 -19 -8 -14 0 4 6 3 11 -3 11 -5 0 -13 -5 -16
-10 -4 -7 -13 -7 -26 0 -14 8 -19 7 -19 -2 0 -10 -2 -10 -9 0 -4 8 -12 14 -16
14 -4 0 -12 -6 -16 -14 -7 -10 -9 -10 -9 2 0 13 -1 13 -10 0 -7 -10 -10 -11
-10 -2 0 13 -38 10 -61 -4 -8 -4 -9 -3 -5 4 8 13 -6 16 -18 5 -12 -13 -40 -9
-54 7 -10 11 -12 12 -6 1 5 -11 3 -13 -9 -8 -10 4 -17 1 -17 -6 0 -7 -3 -8 -8
-2 -11 15 -32 17 -32 3 0 -10 -3 -9 -9 1 -7 10 -13 11 -31 1 -15 -8 -20 -8
-16 -1 4 6 4 11 1 11 -4 0 -16 -5 -27 -11 -15 -8 -19 -8 -14 0 9 14 0 14 -24
1 -15 -8 -21 -6 -29 7 -10 17 -10 16 -11 -2z"/>
<path d="M1323 4643 c6 -9 -2 -11 -28 -9 -22 1 -34 -2 -32 -8 3 -6 -3 -20 -12
-30 -11 -13 -12 -17 -2 -11 11 6 13 2 9 -19 -3 -14 -1 -26 4 -26 5 0 4 -9 -2
-20 -8 -15 -8 -20 1 -20 8 0 8 -4 -1 -15 -10 -12 -10 -15 1 -15 11 0 11 -2 -1
-10 -12 -8 -12 -10 -1 -10 11 0 11 -3 0 -16 -10 -13 -10 -17 2 -25 12 -7 12
-9 -1 -9 -12 0 -13 -2 -1 -9 11 -7 11 -9 0 -14 -12 -5 -12 -6 0 -6 11 -1 11
-4 0 -17 -10 -13 -10 -17 0 -24 11 -6 11 -9 0 -13 -11 -4 -11 -6 1 -6 13 -1
13 -2 0 -11 -12 -8 -12 -10 -1 -10 11 0 11 -3 0 -16 -10 -13 -10 -17 2 -25 12
-7 12 -9 -1 -9 -12 0 -13 -2 -1 -9 11 -7 11 -9 0 -14 -12 -5 -12 -6 0 -6 11
-1 11 -4 0 -17 -10 -13 -10 -17 2 -25 12 -7 12 -9 -1 -9 -12 0 -13 -2 -1 -9
11 -7 11 -9 0 -14 -12 -5 -12 -6 0 -6 11 -1 11 -4 0 -17 -10 -13 -10 -17 2
-25 12 -7 12 -9 -1 -9 -12 0 -13 -2 -1 -9 11 -7 11 -9 0 -14 -12 -5 -12 -6 0
-6 11 -1 11 -4 0 -18 -12 -14 -12 -17 0 -21 11 -4 11 -6 0 -13 -12 -7 -11 -9
1 -9 13 0 13 -1 0 -10 -12 -8 -12 -10 -1 -10 11 0 11 -3 0 -16 -10 -13 -10
-17 2 -25 12 -7 12 -9 -1 -9 -12 0 -13 -2 -1 -9 11 -7 11 -9 0 -14 -12 -5 -12
-6 0 -6 11 -1 11 -4 1 -16 -11 -13 -10 -18 6 -30 17 -13 17 -14 1 -9 -19 7
-21 -15 -2 -28 6 -5 4 -12 -5 -19 -11 -8 -12 -12 -2 -16 6 -2 9 -10 5 -16 -11
-17 -10 -61 2 -69 6 -5 5 -12 -5 -19 -11 -8 -12 -12 -2 -16 6 -2 9 -10 5 -16
-11 -17 -10 -61 2 -69 6 -5 5 -12 -5 -19 -11 -8 -12 -12 -2 -16 6 -2 9 -10 5
-16 -11 -17 -10 -61 2 -69 6 -5 5 -12 -5 -19 -11 -8 -12 -12 -2 -16 6 -2 9
-10 5 -16 -11 -17 -10 -61 2 -69 6 -5 5 -12 -5 -19 -11 -8 -12 -12 -2 -16 6
-2 9 -10 5 -16 -11 -17 -10 -61 2 -69 6 -5 5 -12 -5 -19 -11 -8 -12 -12 -2
-16 6 -2 9 -10 5 -16 -11 -17 -10 -61 2 -69 6 -5 5 -12 -5 -19 -11 -8 -12 -12
-2 -16 6 -2 9 -10 5 -16 -11 -17 -10 -61 2 -69 6 -5 5 -12 -5 -19 -11 -8 -12
-12 -2 -16 6 -2 9 -10 5 -16 -11 -17 -10 -61 2 -69 6 -5 5 -12 -5 -19 -11 -8
-12 -12 -2 -16 6 -2 9 -10 5 -16 -11 -17 -10 -61 2 -69 6 -5 5 -12 -5 -19 -11
-8 -12 -12 -2 -16 6 -2 9 -10 5 -16 -11 -17 -10 -61 2 -69 6 -5 5 -12 -5 -19
-11 -8 -12 -12 -2 -16 6 -2 9 -10 5 -16 -11 -17 -10 -61 2 -69 6 -5 5 -12 -5
-19 -11 -8 -12 -12 -2 -16 6 -2 9 -10 5 -16 -11 -17 -10 -61 2 -69 6 -5 5 -12
-5 -19 -11 -8 -12 -12 -2 -16 6 -2 9 -10 5 -16 -11 -17 -10 -61 2 -69 6 -5 5
-12 -5 -19 -11 -8 -12 -12 -2 -16 6 -2 9 -10 5 -16 -11 -17 -10 -61 2 -69 6
-5 5 -12 -5 -19 -11 -8 -12 -12 -2 -16 6 -2 9 -10 5 -16 -11 -17 -10 -61 2
-69 6 -5 5 -12 -5 -19 -11 -8 -12 -12 -2 -16 6 -2 9 -10 5 -16 -11 -17 -10
-61 2 -69 6 -5 5 -12 -5 -19 -11 -8 -12 -12 -2 -16 6 -2 9 -10 5 -16 -11 -17
-10 -61 2 -70 6 -4 5 -11 -5 -18 -11 -8 -12 -12 -2 -16 6 -2 9 -10 5 -16 -11
-17 -10 -61 2 -69 6 -5 5 -12 -5 -19 -11 -8 -12 -12 -2 -16 6 -2 9 -10 5 -16
-11 -17 -10 -61 2 -69 6 -5 5 -12 -5 -19 -11 -8 -12 -12 -2 -16 6 -2 9 -10 5
-16 -11 -17 -10 -61 2 -69 6 -5 5 -12 -5 -19 -11 -8 -12 -12 -2 -16 6 -2 9
-10 5 -16 -12 -18 -11 -67 1 -67 6 0 4 -5 -4 -10 -13 -9 -13 -10 0 -10 13 0
13 -1 0 -10 -12 -8 -12 -10 -1 -10 11 0 11 -3 0 -16 -10 -13 -10 -17 2 -25 12
-7 12 -9 -1 -9 -12 0 -13 -2 -1 -9 11 -7 11 -9 0 -14 -12 -5 -12 -6 0 -6 11
-1 11 -4 0 -17 -10 -13 -10 -17 2 -25 12 -7 12 -9 -1 -9 -12 0 -13 -2 -1 -9
11 -7 11 -9 0 -14 -12 -5 -12 -6 0 -6 11 -1 11 -4 0 -17 -10 -13 -10 -17 2
-25 12 -7 12 -9 -1 -9 -12 0 -13 -2 -1 -9 11 -7 11 -9 0 -14 -12 -5 -12 -6 0
-6 11 -1 11 -4 0 -17 -10 -13 -10 -17 2 -25 12 -7 12 -9 -1 -9 -12 0 -13 -2
-1 -9 11 -7 11 -9 0 -14 -12 -5 -12 -6 0 -6 11 -1 11 -4 0 -17 -10 -13 -10
-17 2 -25 12 -7 12 -9 -1 -9 -12 0 -13 -2 -1 -9 11 -7 11 -9 0 -14 -12 -5 -12
-6 0 -6 11 -1 11 -4 0 -17 -10 -13 -10 -17 2 -25 12 -7 12 -9 -1 -9 -13 0 -13
-1 0 -10 13 -9 13 -10 0 -10 -12 0 -12 -2 -1 -9 9 -6 10 -10 2 -16 -9 -5 -9
-11 1 -23 10 -12 10 -14 1 -8 -18 10 -16 -9 2 -24 12 -10 18 -10 30 0 12 10
15 10 15 0 0 -10 3 -10 14 -1 10 9 16 9 21 1 5 -8 11 -8 21 1 10 8 14 8 14 0
0 -7 8 -8 25 -1 16 6 25 6 25 0 0 -6 5 -10 11 -10 5 0 7 6 3 13 -6 9 -5 9 8 0
8 -7 18 -10 22 -6 10 10 46 11 40 1 -8 -12 10 -10 24 4 9 9 12 9 12 -1 0 -10
3 -11 14 -2 10 9 16 9 21 1 5 -8 11 -8 21 1 10 8 14 8 14 0 0 -7 8 -8 25 -1
16 6 25 6 25 0 0 -6 5 -10 11 -10 5 0 7 6 3 13 -6 9 -5 9 8 0 8 -7 18 -10 22
-6 10 10 46 11 40 1 -8 -12 10 -10 24 4 9 9 12 9 12 -1 0 -10 3 -11 14 -2 10
9 16 9 21 1 5 -8 11 -8 21 1 10 8 14 8 14 0 0 -7 8 -8 25 -1 14 5 25 6 25 2 0
-10 51 -9 68 2 7 4 12 2 12 -3 0 -6 5 -11 11 -11 5 0 8 4 5 8 -5 9 23 10 39 1
14 -8 78 -4 93 5 7 4 12 2 12 -3 0 -6 5 -11 11 -11 5 0 8 4 5 8 -5 9 23 10 39
1 14 -8 78 -4 93 5 7 4 12 2 12 -3 0 -6 5 -11 11 -11 5 0 8 4 5 8 -5 9 23 10
39 1 14 -8 78 -4 93 5 7 4 12 2 12 -3 0 -6 5 -11 11 -11 5 0 8 4 5 8 -6 11 25
9 42 -2 7 -4 19 -3 27 4 9 8 15 8 20 0 3 -6 12 -7 18 -3 17 10 47 11 41 1 -8
-12 10 -10 24 4 9 9 12 9 12 -1 0 -10 3 -11 14 -2 10 9 16 9 21 1 5 -8 11 -8
21 1 10 8 14 8 14 0 0 -7 8 -8 25 -1 16 6 25 6 25 0 0 -6 5 -10 11 -10 5 0 7
6 3 13 -6 9 -5 9 8 0 8 -7 18 -10 22 -6 10 10 46 11 40 1 -8 -12 10 -10 24 4
9 9 12 9 12 -1 0 -10 3 -11 14 -2 10 9 16 9 21 1 5 -8 11 -8 21 1 10 8 14 8
14 0 0 -7 8 -8 25 -1 16 6 25 6 25 0 0 -6 5 -10 11 -10 5 0 7 6 3 13 -6 9 -4
9 8 -1 9 -7 19 -9 22 -4 6 10 36 9 53 -1 7 -5 22 -3 33 3 15 8 20 8 20 -1 0
-9 3 -9 14 0 10 8 16 9 21 1 3 -6 12 -7 18 -3 17 10 47 11 41 1 -8 -12 10 -10
24 4 9 9 12 9 12 -1 0 -10 3 -11 14 -2 10 9 16 9 21 1 5 -8 11 -8 21 1 10 8
14 8 14 0 0 -7 8 -8 25 -1 16 6 25 6 25 0 0 -6 5 -10 11 -10 5 0 7 6 3 13 -6
9 -5 9 8 0 8 -7 18 -10 22 -6 10 10 46 11 40 1 -8 -12 10 -10 24 4 9 9 12 9
12 -1 0 -10 3 -11 14 -2 10 9 16 9 21 1 5 -8 11 -8 21 1 10 8 14 8 14 0 0 -7
8 -8 25 -1 16 6 25 6 25 0 0 -6 5 -10 11 -10 5 0 7 6 3 13 -6 9 -4 9 8 -1 9
-7 19 -9 22 -4 6 10 36 9 53 -1 7 -5 22 -3 33 3 11 6 20 7 20 3 0 -11 61 -10
78 1 7 4 12 2 12 -3 0 -6 5 -11 11 -11 5 0 8 4 5 8 -2 4 4 8 14 8 10 0 16 -4
14 -8 -3 -4 -1 -8 5 -8 5 0 13 5 16 10 4 7 14 6 28 -1 12 -7 19 -8 15 -4 -4 4
-3 17 3 28 8 15 8 18 -1 12 -9 -6 -9 -2 -1 14 7 11 8 21 3 21 -11 0 -9 51 2
68 4 7 2 12 -3 12 -13 0 -10 22 4 32 6 5 6 8 -2 8 -12 0 -12 17 0 38 5 6 5 12
0 12 -10 0 -8 74 2 91 5 7 4 10 -3 5 -12 -7 -11 32 1 51 4 6 4 14 -1 16 -9 6
-7 71 3 88 5 8 4 10 -3 5 -15 -9 -15 -1 -1 26 8 16 8 19 -1 13 -9 -6 -9 -2 -1
14 8 14 8 21 1 21 -7 0 -8 6 0 19 7 14 7 20 -2 23 -8 3 -8 10 2 27 10 19 10
22 -1 16 -9 -6 -11 -3 -6 8 9 25 -12 31 -34 11 -15 -13 -18 -14 -14 -3 4 10
-1 15 -15 16 -11 1 -20 -3 -20 -8 0 -6 5 -7 12 -3 7 4 8 3 4 -4 -5 -9 -13 -9
-26 -2 -24 13 -33 13 -25 0 3 -6 -1 -7 -9 -4 -9 3 -13 11 -9 18 4 6 -1 5 -10
-3 -11 -9 -17 -10 -17 -2 0 6 -5 11 -11 11 -5 0 -7 -5 -4 -11 5 -7 -5 -9 -30
-5 -27 5 -34 3 -29 -6 4 -7 -2 -5 -13 4 -22 20 -33 23 -33 7 0 -5 5 -7 12 -3
7 5 8 3 3 -5 -5 -9 -11 -9 -17 -3 -6 6 -17 8 -26 5 -9 -4 -13 -2 -9 4 3 5 0
10 -8 10 -8 0 -12 -4 -8 -9 3 -6 -10 -7 -32 -4 -27 5 -34 3 -29 -6 4 -7 -2 -5
-13 4 -22 20 -33 23 -33 7 0 -5 5 -7 12 -3 6 4 8 3 4 -4 -8 -14 -62 2 -58 17
1 7 -2 10 -8 6 -6 -3 -8 -11 -4 -16 4 -7 -7 -8 -31 -5 -27 5 -34 3 -29 -6 4
-7 -2 -5 -13 4 -22 20 -33 23 -33 7 0 -5 5 -7 12 -3 7 5 8 3 3 -5 -5 -9 -11
-9 -17 -3 -6 6 -17 8 -26 5 -9 -4 -13 -2 -9 4 3 5 0 10 -8 10 -8 0 -12 -4 -8
-9 3 -6 -10 -7 -32 -4 -27 5 -34 3 -29 -6 4 -7 -2 -5 -13 4 -22 20 -33 23 -33
7 0 -5 5 -7 12 -3 6 4 8 3 4 -4 -8 -14 -62 2 -58 17 1 7 -2 10 -8 6 -6 -3 -8
-11 -4 -16 4 -7 -7 -8 -31 -5 -27 5 -34 3 -29 -6 4 -7 -2 -5 -13 4 -22 20 -33
23 -33 7 0 -5 5 -7 12 -3 7 5 8 3 3 -5 -5 -9 -11 -9 -17 -3 -6 6 -17 8 -26 5
-9 -4 -13 -2 -9 4 3 5 0 10 -8 10 -8 0 -12 -4 -8 -9 3 -6 -10 -7 -32 -4 -27 5
-34 3 -29 -6 4 -7 -2 -5 -13 4 -22 20 -33 23 -33 7 0 -5 5 -7 12 -3 6 4 8 3 4
-4 -8 -14 -62 2 -58 17 1 7 -2 10 -8 6 -6 -3 -8 -11 -4 -16 4 -7 -7 -8 -31 -5
-27 5 -34 3 -29 -6 4 -7 -2 -5 -13 4 -22 20 -33 23 -33 7 0 -5 5 -7 12 -3 7 5
8 3 3 -5 -5 -9 -11 -9 -17 -3 -6 6 -17 8 -26 5 -9 -4 -13 -2 -9 4 3 5 0 10 -8
10 -8 0 -12 -4 -8 -9 3 -6 -10 -7 -32 -4 -27 5 -34 3 -29 -6 4 -7 -2 -5 -13 4
-22 20 -33 23 -33 7 0 -5 5 -7 12 -3 6 4 8 3 4 -4 -4 -7 -17 -8 -34 -2 -17 4
-36 3 -48 -3 -17 -9 -18 -9 -5 6 17 22 7 22 -27 0 -26 -17 -27 -17 -12 2 16
20 17 20 -39 -3 -10 -4 -12 -1 -6 9 6 11 5 11 -5 2 -7 -6 -19 -9 -28 -6 -10 4
-13 2 -8 -5 5 -8 2 -10 -8 -6 -9 3 -13 11 -9 18 3 6 1 6 -8 -2 -17 -16 -32
-16 -23 1 5 8 2 8 -9 -2 -12 -9 -17 -10 -17 -2 0 7 -5 9 -10 6 -6 -4 -7 -11
-4 -17 5 -7 2 -8 -7 -2 -8 5 -32 8 -54 7 -29 -2 -36 0 -25 7 9 6 10 10 3 10
-7 0 -17 -8 -22 -17 -10 -17 -10 -17 -11 1 0 18 -1 18 -18 3 -12 -11 -22 -13
-32 -7 -20 13 -33 13 -25 0 3 -6 -1 -7 -9 -4 -9 3 -13 11 -9 18 4 6 -1 5 -10
-3 -9 -7 -17 -9 -17 -4 0 5 -9 9 -19 9 -11 0 -18 -3 -16 -6 2 -4 -2 -7 -10 -7
-8 0 -12 4 -9 9 3 4 2 8 -3 8 -4 0 -8 22 -9 50 0 30 3 47 9 43 6 -4 7 -1 1 8
-14 23 -17 62 -3 54 8 -5 8 -2 2 11 -5 11 -9 30 -8 44 1 14 -3 30 -7 37 -5 6
-5 14 2 18 5 3 7 18 4 32 -5 19 -4 24 6 18 9 -5 10 -3 3 11 -5 11 -9 30 -8 44
1 14 -3 30 -7 37 -5 6 -5 14 2 18 5 3 7 18 4 32 -5 19 -4 24 6 18 9 -5 10 -3
3 11 -5 11 -9 48 -8 84 1 36 -2 70 -7 77 -5 6 -5 14 2 18 5 3 7 18 4 32 -5 19
-4 24 6 18 9 -5 10 -3 3 11 -6 11 -9 39 -8 64 1 25 -2 50 -7 57 -5 7 -5 14 2
18 5 3 7 18 4 32 -5 18 -3 24 4 19 8 -5 10 -2 6 8 -3 9 -11 13 -18 9 -7 -5 -7
-2 1 8 7 8 9 26 6 39 -5 17 -3 21 7 15 10 -6 11 -4 4 6 -5 8 -9 37 -9 64 0 28
-4 55 -8 62 -4 6 -3 14 3 18 5 3 7 18 4 32 -5 19 -4 24 6 18 9 -5 10 -3 3 11
-6 11 -9 39 -8 64 1 25 -2 50 -7 57 -5 7 -5 14 2 18 5 3 7 18 4 32 -5 18 -3
24 4 19 8 -5 10 -2 6 8 -3 9 -11 13 -18 9 -7 -5 -7 -2 1 8 7 8 9 26 6 39 -5
17 -3 21 7 15 10 -6 11 -4 4 6 -5 8 -9 37 -9 64 0 28 -4 55 -8 62 -4 6 -3 14
3 18 5 3 7 18 4 32 -5 19 -4 24 6 18 9 -5 10 -3 3 11 -5 11 -9 48 -8 84 1 36
-2 70 -7 77 -5 6 -5 14 2 18 5 3 7 18 4 32 -5 19 -4 24 6 18 9 -5 10 -3 3 11
-5 11 -9 30 -8 44 1 14 -3 30 -7 37 -5 6 -5 14 2 18 5 3 7 18 4 32 -5 19 -4
24 6 18 9 -5 10 -3 3 11 -5 11 -9 30 -8 44 1 14 -3 30 -7 37 -5 6 -5 14 2 18
5 3 7 18 4 32 -5 19 -4 24 6 18 9 -5 10 -3 3 11 -5 11 -9 30 -8 44 1 14 -3 30
-7 37 -5 6 -5 14 2 18 5 3 7 18 4 32 -5 19 -4 24 6 18 9 -5 10 -3 3 11 -5 11
-9 48 -8 84 1 36 -2 70 -7 77 -5 6 -5 14 2 18 5 3 7 18 4 32 -5 19 -4 24 6 18
9 -5 10 -3 3 11 -6 11 -9 39 -8 64 1 25 -2 50 -7 57 -5 7 -5 14 2 18 5 3 7 18
4 32 -5 18 -3 24 4 19 8 -5 10 -2 6 8 -3 9 -11 13 -18 9 -7 -5 -7 -2 1 8 7 8
9 26 6 39 -5 17 -3 21 7 15 10 -6 11 -4 4 6 -5 8 -9 37 -9 64 0 28 -4 55 -8
62 -4 6 -3 14 3 18 5 3 7 18 4 32 -5 19 -4 24 6 18 9 -6 10 -3 2 11 -5 11 -8
40 -7 67 2 40 -1 47 -16 47 -11 0 -19 6 -19 13 0 9 -3 8 -9 -2 -5 -7 -13 -11
-19 -7 -6 3 -13 0 -15 -6 -3 -7 -6 -8 -6 -2 -1 6 -29 9 -76 8 -55 -2 -73 1
-69 9 5 8 2 8 -7 0 -17 -17 -63 -17 -53 -1 5 8 3 8 -7 2 -20 -13 -83 -13 -91
0 -5 7 -8 7 -8 0 0 -5 -18 -10 -40 -11 -27 -1 -38 3 -33 11 5 8 3 8 -8 0 -8
-7 -39 -11 -69 -10 -30 1 -67 -2 -82 -5 -22 -6 -26 -4 -20 9 5 15 4 15 -11 3
-14 -11 -20 -11 -34 0 -10 9 -14 9 -10 2z"/>
<path d="M103 3177 c-3 -6 -1 -7 5 -3 7 4 12 3 12 -2 0 -6 -7 -13 -16 -16 -8
-3 -12 -11 -8 -17 3 -6 0 -15 -7 -20 -12 -7 -11 -9 1 -9 9 0 16 -9 16 -20 0
-11 -3 -20 -6 -20 -3 0 -6 -9 -7 -20 -1 -13 2 -18 9 -14 7 5 8 2 2 -7 -12 -19
-11 -41 1 -58 7 -11 7 -13 -2 -7 -7 4 -13 3 -13 -3 0 -5 5 -13 10 -16 7 -4 8
-11 1 -18 -15 -19 -15 -21 -3 -44 8 -14 9 -24 2 -28 -5 -3 -10 -11 -10 -16 0
-6 5 -7 12 -3 7 5 8 3 2 -7 -5 -8 -9 -21 -9 -29 0 -8 -4 -20 -8 -27 -4 -6 -2
-15 4 -19 8 -4 9 -3 5 4 -4 7 -2 12 3 12 13 0 14 -17 2 -24 -10 -7 -9 -25 2
-43 4 -6 3 -14 -2 -18 -5 -3 -8 -14 -6 -25 2 -11 -2 -20 -8 -20 -7 0 -4 -5 5
-10 17 -10 17 -26 2 -64 -6 -15 -4 -17 6 -11 10 6 11 4 4 -6 -12 -19 -11 -41
1 -58 7 -11 7 -13 -2 -7 -7 4 -13 3 -13 -3 0 -5 5 -13 10 -16 6 -4 7 -12 3
-18 -11 -16 -11 -29 -1 -49 5 -10 4 -19 -2 -23 -5 -3 -10 -11 -10 -16 0 -6 5
-7 12 -3 7 5 8 3 2 -7 -5 -8 -9 -21 -9 -29 0 -8 -4 -20 -8 -27 -4 -6 -2 -15 4
-19 8 -4 9 -3 5 4 -4 7 -2 12 3 12 13 0 14 -17 2 -24 -10 -7 -9 -25 2 -43 4
-6 3 -14 -2 -18 -5 -3 -8 -14 -6 -25 2 -11 -2 -20 -8 -20 -7 0 -4 -5 5 -10 17
-10 17 -26 2 -64 -6 -15 -4 -17 6 -11 9 6 11 4 5 -6 -12 -19 -14 -49 -3 -55 5
-3 1 -15 -9 -26 -9 -11 -13 -19 -8 -18 22 5 25 -1 14 -21 -6 -12 -7 -19 -2
-16 5 3 17 -3 26 -14 16 -18 19 -18 33 -4 21 20 30 19 13 -2 -7 -10 -1 -6 14
9 20 20 26 35 23 57 -2 17 1 31 6 31 5 0 6 6 1 13 -13 21 -14 49 -1 41 7 -5 8
-3 3 5 -10 18 -13 101 -2 101 4 0 5 6 0 13 -13 21 -14 49 -2 41 8 -5 9 -2 1
11 -6 11 -6 30 -1 47 5 17 4 26 -2 23 -9 -6 -2 62 9 79 3 5 0 6 -6 2 -7 -4
-12 -1 -12 8 0 8 6 17 13 19 9 4 9 6 -1 6 -9 1 -10 6 -3 20 6 10 7 21 4 25
-10 10 -10 106 0 106 5 0 5 6 0 13 -14 22 -14 49 -1 41 10 -6 10 -4 0 8 -10
13 -10 17 0 21 11 4 11 6 0 6 -9 1 -10 6 -2 20 6 12 6 22 1 26 -9 5 -7 42 4
73 3 7 0 10 -5 7 -10 -6 -4 61 8 79 3 5 1 6 -5 3 -5 -3 -9 16 -9 49 1 29 5 54
9 54 5 0 5 6 0 13 -13 20 -14 49 -2 41 8 -4 8 -1 2 12 -5 11 -8 40 -7 67 1 26
-3 47 -8 47 -6 0 -8 8 -6 18 4 14 -2 17 -39 18 -24 0 -47 -4 -50 -9z"/>
<path d="M4935 3180 c3 -5 -2 -10 -10 -13 -10 -5 -13 -21 -12 -66 1 -32 -1
-57 -5 -55 -4 3 -4 -6 2 -20 6 -17 6 -26 -3 -30 -9 -3 -9 -5 1 -5 9 -1 10 -6
3 -20 -6 -10 -8 -21 -5 -24 11 -10 12 -77 1 -70 -6 4 -7 1 -2 -7 10 -16 12
-150 3 -143 -5 2 -4 -7 2 -21 6 -17 6 -26 -3 -30 -9 -3 -9 -5 1 -5 9 -1 10 -6
3 -20 -6 -10 -8 -21 -5 -24 11 -10 12 -77 1 -70 -6 4 -7 1 -2 -7 10 -16 12
-150 3 -143 -5 2 -4 -7 2 -21 6 -17 6 -26 -3 -30 -9 -3 -9 -5 1 -5 9 -1 10 -6
3 -20 -6 -10 -8 -21 -5 -24 11 -10 12 -77 1 -70 -6 4 -7 1 -2 -7 10 -16 12
-150 3 -143 -5 2 -4 -7 2 -21 6 -17 6 -26 -3 -30 -9 -3 -9 -5 1 -5 9 -1 10 -6
3 -19 -6 -10 -6 -24 -1 -32 5 -8 6 -18 4 -22 -3 -4 6 -20 20 -35 15 -15 26
-22 26 -15 0 6 4 12 10 12 5 0 7 -8 4 -17 -3 -10 1 -8 8 5 8 12 17 19 21 16 6
-7 11 10 8 29 -1 4 3 16 9 27 7 12 7 21 0 25 -5 3 -10 11 -10 16 0 6 4 7 10 4
6 -3 7 1 4 10 -11 27 -11 89 -1 103 6 7 6 12 0 12 -5 0 -9 9 -10 20 -1 11 2
18 7 15 6 -3 7 1 4 10 -11 27 -11 89 -1 103 6 7 6 12 0 12 -5 0 -9 9 -10 20
-1 11 2 18 7 15 6 -3 7 1 4 10 -11 27 -11 89 -1 103 6 7 6 12 0 12 -5 0 -9 9
-10 20 -1 11 2 18 7 15 6 -3 7 1 4 10 -11 27 -11 89 -1 103 6 7 6 12 0 12 -5
0 -9 9 -10 20 -1 11 2 18 7 15 6 -3 7 1 4 10 -11 27 -11 89 -1 103 6 7 6 12 0
12 -5 0 -9 9 -10 20 -1 11 2 18 7 15 6 -3 7 1 4 10 -11 27 -11 89 -1 103 6 7
6 12 0 12 -5 0 -9 9 -10 20 -1 11 2 18 7 15 6 -3 7 1 4 10 -11 27 -11 89 -1
103 6 8 6 12 -2 12 -13 0 -10 22 4 32 6 5 5 8 -4 8 -8 0 -11 6 -7 16 3 8 2 12
-3 9 -5 -3 -12 -1 -15 4 -4 5 -20 9 -36 9 -16 -1 -27 -4 -25 -8z"/>
<path d="M2170 1379 c0 -5 5 -7 10 -4 6 3 10 8 10 11 0 2 -4 4 -10 4 -5 0 -10
-5 -10 -11z"/>
<path d="M142 860 c2 -10 -3 -14 -16 -12 -13 3 -17 -1 -13 -12 4 -9 1 -15 -5
-13 -14 2 -18 -23 -6 -40 5 -6 5 -14 -1 -17 -5 -4 -8 -15 -6 -26 2 -11 -2 -20
-8 -20 -7 0 -4 -5 5 -10 17 -10 17 -26 2 -64 -6 -15 -4 -17 7 -11 11 7 12 6 4
-6 -12 -17 -13 -39 -1 -58 6 -10 5 -12 -2 -7 -7 4 -12 3 -12 -3 0 -5 5 -13 10
-16 6 -4 7 -12 3 -18 -11 -16 -11 -29 -1 -49 5 -10 4 -19 -2 -23 -5 -3 -10
-11 -10 -16 0 -6 5 -7 12 -3 7 5 8 3 2 -7 -5 -8 -9 -21 -9 -29 0 -8 -4 -20 -8
-27 -4 -6 -2 -15 4 -19 8 -4 9 -3 5 4 -4 7 -2 12 3 12 13 0 14 -17 2 -24 -10
-7 -9 -25 2 -43 4 -6 3 -14 -2 -18 -5 -3 -8 -14 -6 -25 2 -11 -2 -20 -8 -20
-7 0 -4 -5 5 -10 17 -10 17 -26 2 -64 -6 -15 -4 -17 6 -11 9 6 11 4 5 -6 -13
-20 -13 -52 -1 -64 11 -11 126 -15 126 -5 0 3 9 6 19 6 11 0 18 -4 15 -7 -5
-10 38 -5 54 5 7 4 12 3 12 -1 0 -5 32 -9 70 -9 39 0 70 4 70 9 0 4 4 5 10 2
19 -11 50 -14 55 -4 4 5 12 6 18 2 14 -9 157 -12 157 -3 0 3 9 6 19 6 11 0 18
-3 16 -6 -6 -10 93 -5 102 5 4 4 2 5 -6 0 -9 -5 -12 -4 -7 3 4 6 13 9 21 5 21
-7 20 63 0 83 -9 9 -15 11 -15 4 0 -6 -5 -8 -10 -5 -6 4 -7 11 -4 17 4 6 -2 6
-15 -1 -11 -7 -21 -8 -21 -4 0 4 -5 1 -10 -7 -8 -12 -10 -12 -10 5 0 11 -4 16
-8 10 -11 -16 -45 -19 -37 -3 6 10 5 11 -6 1 -19 -18 -29 -16 -23 5 5 16 5 16
-6 -1 -6 -10 -16 -14 -23 -10 -21 13 -39 12 -33 -2 3 -9 0 -12 -9 -8 -8 3 -12
10 -8 17 4 7 2 7 -7 -1 -9 -8 -19 -9 -31 -3 -12 7 -20 6 -25 -2 -5 -7 -3 -8 6
-3 9 5 11 4 6 -4 -6 -9 -11 -9 -22 0 -8 6 -17 9 -21 6 -3 -4 -15 -2 -26 4 -10
6 -17 7 -14 2 4 -6 -8 -10 -24 -11 -29 -1 -30 0 -13 15 15 12 13 12 -8 -1 -20
-12 -28 -13 -28 -4 0 6 -6 4 -13 -7 -10 -13 -16 -15 -21 -6 -4 6 -12 9 -17 6
-5 -4 -9 -1 -9 5 0 6 -5 8 -10 5 -6 -4 -7 -12 -4 -18 5 -9 4 -9 -6 0 -7 6 -19
9 -26 6 -10 -4 -12 0 -8 13 6 18 6 18 -8 0 -10 -13 -17 -15 -22 -8 -5 8 -15 8
-32 1 -22 -8 -25 -7 -20 6 3 8 2 15 -2 15 -4 0 -8 9 -8 20 0 11 4 20 9 20 4 0
5 6 0 12 -13 22 -14 50 -2 42 8 -5 9 -2 1 11 -6 11 -6 30 -1 47 5 17 4 26 -2
23 -9 -6 -2 62 9 79 3 5 0 6 -6 2 -7 -4 -12 -1 -12 8 0 8 6 17 13 19 9 4 9 6
-1 6 -9 1 -10 6 -3 20 6 10 7 21 4 25 -10 10 -10 106 0 106 5 0 5 6 0 13 -14
22 -14 49 -1 41 9 -5 9 -2 -1 9 -9 12 -10 17 -2 17 7 0 9 5 5 12 -4 7 -8 24
-8 38 -1 14 -5 31 -10 39 -7 11 -6 12 5 6 8 -5 5 1 -5 13 -21 24 -31 29 -20
10 4 -7 -3 -4 -15 7 -16 14 -22 15 -19 5z"/>
<path d="M4932 849 c2 -8 -2 -13 -8 -12 -8 2 -11 -12 -10 -37 0 -22 -3 -42 -9
-44 -5 -3 -4 -5 3 -5 9 -1 10 -6 3 -20 -6 -10 -8 -21 -5 -24 11 -10 12 -77 1
-70 -6 4 -7 1 -2 -7 10 -16 12 -150 3 -143 -5 2 -4 -7 2 -21 6 -17 6 -26 -3
-30 -9 -3 -9 -5 1 -5 9 -1 10 -6 3 -20 -6 -10 -8 -21 -5 -24 10 -9 11 -67 2
-67 -5 0 -5 -8 -1 -18 5 -9 8 -28 7 -42 -6 -71 -8 -79 -20 -69 -8 7 -15 6 -20
-2 -5 -8 -3 -9 6 -4 9 5 11 4 6 -4 -6 -9 -11 -9 -22 0 -8 6 -17 9 -21 6 -3 -4
-15 -2 -26 4 -14 8 -18 8 -13 0 4 -6 0 -11 -9 -11 -9 0 -14 4 -10 9 3 5 0 13
-6 17 -8 5 -9 3 -4 -6 6 -10 3 -12 -13 -8 -12 4 -20 3 -17 -2 3 -4 -2 -11 -11
-14 -9 -4 -13 -2 -8 5 4 7 -1 9 -15 4 -17 -5 -20 -3 -15 12 5 17 5 17 -6 0 -9
-14 -15 -15 -25 -7 -9 8 -15 8 -20 0 -3 -5 -11 -10 -16 -10 -6 0 -8 4 -4 9 3
5 0 13 -6 17 -8 5 -9 3 -4 -6 6 -10 3 -12 -13 -8 -12 4 -20 3 -17 -2 3 -4 -2
-11 -11 -14 -9 -4 -13 -2 -8 5 4 7 -1 9 -15 4 -17 -5 -20 -3 -15 12 5 17 5 17
-6 0 -6 -10 -16 -14 -23 -10 -21 13 -39 12 -33 -2 3 -9 0 -12 -9 -8 -8 3 -12
10 -8 17 4 7 2 7 -7 -1 -9 -8 -19 -9 -31 -3 -12 7 -20 6 -25 -2 -5 -7 -3 -8 6
-3 9 5 11 4 6 -4 -5 -7 -12 -9 -19 -3 -7 5 -19 10 -27 10 -8 0 -25 3 -38 6
-14 3 -20 1 -16 -5 3 -6 -2 -10 -12 -9 -11 1 -26 2 -34 1 -13 -1 -13 -2 0 -11
13 -8 13 -10 -1 -10 -16 0 -19 -26 -5 -48 4 -6 4 -18 0 -25 -4 -6 -4 -9 1 -5
4 4 15 2 23 -5 13 -10 14 -9 7 2 -6 10 -4 12 5 6 18 -11 80 -13 86 -3 3 5 11
5 17 1 14 -9 157 -12 157 -3 0 3 9 6 19 6 11 0 18 -4 15 -7 -5 -10 38 -5 54 5
7 4 12 3 12 -1 0 -5 32 -9 70 -9 39 0 70 4 70 9 0 4 4 5 10 2 19 -11 50 -14
55 -4 4 5 12 6 18 2 6 -4 40 -8 74 -8 45 -1 64 2 68 13 3 7 3 18 -1 23 -3 5 1
9 8 9 8 0 9 3 3 8 -12 8 -13 71 -2 90 5 6 4 12 0 12 -5 0 -9 9 -10 20 -1 11 2
18 7 15 6 -3 7 1 4 10 -11 27 -11 89 -1 102 6 8 6 13 0 13 -5 0 -9 9 -10 20
-1 11 2 18 7 15 6 -3 7 1 4 10 -11 27 -11 89 -1 103 6 7 6 12 0 12 -5 0 -9 9
-10 20 -1 11 2 18 7 15 6 -3 7 1 4 10 -11 27 -11 89 -1 103 6 7 6 12 0 12 -5
0 -9 9 -10 20 -1 11 2 18 8 15 5 -4 6 3 0 17 -4 13 -6 28 -4 34 2 6 -1 24 -7
40 -8 20 -13 25 -19 15 -6 -9 -11 -10 -15 -2 -4 6 -12 11 -17 11 -6 0 -7 -6
-3 -12 5 -8 2 -8 -10 1 -15 12 -17 12 -14 0z"/>
<path d="M2113 195 c-16 -12 -22 -12 -26 -2 -4 9 -6 9 -6 0 -1 -7 -6 -13 -12
-13 -5 0 -8 4 -5 8 3 5 -1 9 -9 9 -8 0 -12 -4 -10 -8 3 -4 -2 -10 -11 -13 -10
-4 -13 -2 -8 6 5 8 -1 9 -20 4 -15 -4 -25 -3 -22 2 3 5 -1 9 -9 9 -8 0 -13 -5
-12 -11 1 -5 -4 -10 -10 -11 -7 0 -12 -3 -10 -7 1 -4 -7 -14 -18 -22 -13 -10
-15 -15 -6 -16 7 0 11 -6 8 -15 -4 -8 -1 -17 5 -21 7 -5 8 -2 3 6 -5 9 -4 11
3 6 7 -4 12 -13 12 -20 0 -7 7 -13 15 -13 8 0 15 4 15 9 0 5 8 5 18 0 14 -7
116 -9 132 -3 14 6 58 6 54 -1 -6 -9 38 -4 54 6 7 4 12 3 12 -1 0 -5 32 -9 70
-9 39 0 70 4 70 9 0 4 4 5 10 2 19 -11 50 -14 55 -4 4 5 12 6 18 2 14 -9 157
-12 157 -3 0 3 9 6 19 6 11 0 18 -4 15 -7 -5 -10 38 -5 54 5 7 4 12 3 12 -1 0
-5 32 -9 70 -9 39 0 70 4 70 9 0 4 4 5 10 2 18 -11 50 -14 55 -4 4 5 14 5 23
1 20 -10 132 -10 147 0 6 4 17 3 24 -1 21 -13 51 -1 44 17 -4 10 -2 13 5 8 11
-6 14 0 11 20 0 4 5 11 13 15 10 7 8 9 -6 9 -11 0 -17 3 -13 6 12 12 -19 32
-43 27 -16 -3 -29 2 -39 14 -12 16 -13 16 -8 1 4 -12 1 -18 -9 -18 -8 0 -13 3
-11 8 3 4 -6 8 -19 8 -13 1 -24 -2 -24 -8 0 -5 5 -6 10 -3 6 3 10 1 10 -5 0
-7 -7 -9 -16 -6 -9 3 -18 6 -20 6 -3 0 -2 6 2 13 5 9 4 9 -6 0 -9 -8 -19 -9
-31 -3 -12 7 -20 6 -25 -2 -5 -7 -3 -8 6 -3 9 5 11 4 6 -4 -6 -9 -11 -9 -22 0
-8 6 -17 9 -21 6 -3 -4 -15 -2 -26 4 -14 8 -18 8 -13 0 4 -6 0 -11 -9 -11 -9
0 -14 4 -10 9 3 5 0 13 -6 17 -8 5 -9 3 -4 -6 6 -10 3 -12 -13 -8 -12 4 -20 3
-17 -2 3 -4 -2 -11 -11 -14 -9 -4 -13 -2 -8 5 4 7 -1 9 -15 4 -17 -5 -20 -3
-15 12 5 17 5 17 -6 0 -9 -14 -15 -15 -25 -7 -9 8 -15 8 -20 0 -3 -5 -11 -10
-16 -10 -6 0 -8 4 -4 9 3 5 0 13 -6 17 -8 5 -9 3 -4 -6 6 -10 3 -12 -13 -8
-12 4 -20 3 -17 -2 3 -4 -2 -11 -11 -14 -9 -4 -13 -2 -8 5 4 7 -1 9 -15 4 -17
-5 -20 -3 -15 12 5 17 5 17 -6 0 -6 -10 -16 -14 -23 -10 -21 13 -39 12 -33 -2
3 -9 0 -12 -9 -8 -8 3 -12 10 -8 17 4 7 2 7 -7 -1 -9 -8 -19 -9 -31 -3 -12 7
-20 6 -25 -2 -5 -7 -3 -8 6 -3 9 5 11 4 6 -4 -6 -9 -11 -9 -22 0 -8 6 -17 9
-21 6 -3 -4 -15 -2 -26 4 -10 6 -17 7 -14 2 4 -6 -8 -10 -24 -11 -29 -1 -30 0
-13 15 15 12 13 12 -8 -1 -20 -12 -28 -13 -28 -4 0 6 -6 4 -13 -7 -10 -13 -16
-15 -21 -6 -4 6 -12 9 -17 6 -5 -4 -9 -1 -9 5 0 6 -5 8 -10 5 -6 -4 -7 -12 -4
-18 5 -9 4 -9 -6 0 -7 6 -19 9 -26 6 -10 -4 -12 0 -8 13 6 18 6 18 -8 0 -11
-13 -17 -16 -22 -7 -4 6 -13 8 -19 4 -7 -4 -23 -9 -37 -11 -24 -3 -24 -3 -5
12 26 20 16 21 -12 1z"/>
</g>
</svg>
